<svg width="1484" height="374" viewBox="0 0 1484 374" fill="none" xmlns="http://www.w3.org/2000/svg">
<path d="M526.196 293L580.614 220.941L524.701 143.5H584.8L612.308 186.257L638.321 143.5H693.038L640.115 217.951L696.028 293H635.929L609.019 251.439L582.707 293H526.196Z" fill="white"/>
<path d="M756.519 296.887C726.619 296.887 706.885 279.844 706.885 253.532C706.885 229.612 716.752 213.765 758.014 206.888L791.801 200.908C805.555 198.516 809.143 194.928 809.143 187.154C809.143 178.184 803.761 172.802 786.718 172.802C768.778 172.802 760.107 179.978 759.808 193.134H709.875C711.37 161.44 738.878 138.716 786.12 138.716C833.362 138.716 856.684 158.151 856.684 192.237V251.738C856.684 267.585 857.581 280.741 859.375 293H815.123C813.628 284.329 812.731 274.163 812.731 261.904C805.256 283.731 786.718 296.887 756.519 296.887ZM775.954 263.399C795.389 263.399 809.143 249.645 809.143 222.735V217.054C801.967 222.436 795.09 224.23 785.821 226.622L777.15 228.715C762.798 232.303 757.416 237.386 757.416 247.552C757.416 258.017 765.489 263.399 775.954 263.399Z" fill="white"/>
<path d="M958.062 293C912.315 293 897.963 272.668 897.963 234.097V182.071H871.651V158.151L902.149 144.696L923.378 107.321H949.391V143.5H990.055V182.071H949.391V252.336H985.271V293H958.062Z" fill="white"/>
<path d="M1106.54 141.108H1119.1V191.041H1100.86C1076.05 191.041 1065.58 203.001 1065.58 233.2V293H1014.15V143.5H1064.09V173.998C1070.07 152.769 1082.32 141.108 1106.54 141.108Z" fill="white"/>
<path d="M1214.59 297.784C1151.2 297.784 1129.07 258.615 1129.07 218.25C1129.07 178.184 1151.2 138.716 1214.59 138.716C1277.97 138.716 1300.4 178.184 1300.4 218.25C1300.4 258.316 1277.97 297.784 1214.59 297.784ZM1180.5 218.25C1180.5 248.15 1190.07 257.718 1214.59 257.718C1239.1 257.718 1248.67 248.15 1248.67 218.25C1248.67 188.35 1239.1 178.782 1214.59 178.782C1190.07 178.782 1180.5 188.35 1180.5 218.25Z" fill="white"/>
<path d="M1427.16 138.716C1466.33 138.716 1483.37 162.935 1483.37 202.104V293H1431.94V210.775C1431.94 191.041 1423.87 180.277 1405.93 180.277C1385.3 180.277 1373.34 193.433 1373.34 222.735V293H1321.91V143.5H1373.34V171.307C1383.21 151.573 1400.55 138.716 1427.16 138.716Z" fill="white"/>
<path fill-rule="evenodd" clip-rule="evenodd" d="M372.264 186.818H273.984C273.984 138.05 234.61 98.5234 186.129 98.5234C137.647 98.5234 98.2728 138.05 98.2728 186.818H0C0 83.6641 83.3554 0 186.129 0C288.902 0 372.264 83.6641 372.264 186.818Z" fill="#22C55E"/>
<path fill-rule="evenodd" clip-rule="evenodd" d="M509 187.182H410.721C410.721 235.95 371.346 275.477 322.865 275.477C274.383 275.477 235.009 235.95 235.009 187.182H136.736C136.736 290.336 220.091 374 322.865 374C425.638 374 509 290.336 509 187.182Z" fill="#22C55E"/>
</svg>
